# xmcd CD database file
#
# Track frame offsets:
#	150
#	15245
#	36575
#	48962
#	61262
#	76192
#	88965
#	102470
#	116185
#	128802
#
# Disc length: 1953 seconds
#
# Revision: 0
# Processed by: cddbd v1.4PL0 Copyright (c) Steve Scherf et al.
# Submitted via: CDex 1.50beta10
#
DISCID=80079f0a
DTITLE=La Rondalla Tapatía - 22 Guitarras 22 Voces
DYEAR=1997
DGENRE=Rondallas
TTITLE0=La Rondalla
TTITLE1=Chapala
TTITLE2=Novia mía
TTITLE3=Hay unos ojos
TTITLE4=La Chilena
TTITLE5=Las Mañanitas
TTITLE6=Las golondrinas yucatecas
TTITLE7=Quisiera
TTITLE8=Canción del corazón
TTITLE9=Ojos Tapatíos
EXTD=YEAR: 1997
EXTT0=
EXTT1=
EXTT2=
EXTT3=
EXTT4=
EXTT5=
EXTT6=
EXTT7=
EXTT8=
EXTT9=
PLAYORDER=
